<svg width="134" height="40" viewBox="0 0 134 40" fill="none" xmlns="http://www.w3.org/2000/svg">
<g clip-path="url(#clip0_512_14382)">
<path d="M47.7639 14.1942H51.812L54.9089 23.8528H51.6103L51.1619 22.2431H48.0137L47.5653 23.8528H44.667L47.7639 14.1942ZM48.5645 20.1447H50.5117L49.5638 16.6307L48.5645 20.1447ZM55.9081 14.1942H60.6031C61.7529 14.1942 62.6015 14.4385 63.1524 14.8769C63.7033 15.3154 63.9531 15.9511 63.9531 16.731V16.7811C63.9531 17.9023 63.4022 18.585 62.2557 18.8794C62.8545 18.9765 63.3542 19.2208 63.7033 19.6123C64.0523 20.0037 64.2541 20.4892 64.2541 21.1249V21.1751C64.2541 22.979 63.0563 23.8591 60.6063 23.8591H55.9594V14.2005H55.9081V14.1942ZM59.9562 21.8046C60.7569 21.8046 61.154 21.4632 61.154 20.7805V20.7303C61.154 20.0977 60.7537 19.7563 59.905 19.7563H58.957V21.8046H59.9562ZM59.9562 17.9524C60.3565 17.9524 60.6063 17.9023 60.8049 17.7582C60.9554 17.611 61.0547 17.4169 61.0547 17.1225V17.0723C61.0547 16.4867 60.7056 16.1954 59.9562 16.1954H59.0083V17.9524H59.9562ZM67.2517 16.5368H64.7537V14.1942H72.8977V16.5368H70.3997V23.8528H67.2517V16.5368ZM78.5443 21.6104C79.143 21.6104 79.6423 21.3661 79.9917 20.9277C80.341 20.4892 80.5423 19.8534 80.5423 19.0736V18.9765C80.5423 18.1466 80.3437 17.5609 79.9917 17.1225C79.6423 16.684 79.143 16.4898 78.493 16.4898C77.8937 16.4898 77.3943 16.684 77.045 17.1225C76.6963 17.5609 76.4943 18.1967 76.4943 18.9765V19.0736C76.4943 19.9035 76.693 20.5362 77.045 20.9747C77.3943 21.3661 77.8937 21.6073 78.5443 21.6073V21.6104ZM78.445 24C76.847 24 75.5463 23.5615 74.6463 22.6345C73.6983 21.7075 73.247 20.5362 73.247 19.0235V18.9264C73.247 17.4638 73.7463 16.2925 74.7457 15.3655C75.745 14.4385 76.9943 14 78.5443 14C80.0943 14 81.391 14.4385 82.3903 15.3185C83.3897 16.1954 83.889 17.3667 83.889 18.8794V18.9765C83.889 20.4892 83.3897 21.7075 82.4417 22.6345C81.391 23.5615 80.0943 24 78.445 24ZM88.2863 19.4619C88.187 20.389 88.0363 21.0216 87.8383 21.4632H90.5343V16.5368H88.485C88.3343 18.1466 88.2863 19.1206 88.2863 19.4651V19.4619ZM83.9883 23.8528V21.5102H84.6383C85.1383 21.2659 85.4877 20.5331 85.6377 19.2177C85.737 18.5349 85.737 16.8751 85.737 14.1942H93.6317V21.5133H94.8323V23.8559H83.9917L83.9883 23.8528ZM95.6783 23.8528V14.1942H98.8263V19.7563L101.974 14.1942H105.071V23.8528H101.974V18.1935L98.8263 23.8027H95.6783V23.8528ZM110.365 20.1948C110.214 21.4632 109.917 22.3902 109.417 23.0229C108.969 23.6586 108.22 24 107.268 24H106.919C106.82 24 106.72 23.953 106.618 23.953C106.516 23.953 106.468 23.9029 106.42 23.9029C106.372 23.9029 106.32 23.8528 106.269 23.8528L106.218 23.8027V21.4601L106.317 21.5102C106.416 21.5102 106.516 21.5571 106.618 21.5571C106.919 21.5571 107.169 21.363 107.368 21.0216C107.518 20.6803 107.668 20.1447 107.768 19.4119C107.867 18.4347 107.918 16.7279 107.918 14.1441H115.662V23.8027H112.466V16.4867H110.567C110.516 18.2437 110.468 19.4619 110.368 20.1948H110.365ZM117.411 14.1942H124.456V16.5368H120.559V17.9023H123.656V20.0476H120.559V21.5102H124.706V23.8528H117.462V14.1942H117.411ZM126.004 14.1942H129.952C132.649 14.1942 134 15.3154 134 17.5108V17.5609C134 18.585 133.651 19.3649 133.001 19.9035C132.351 20.4391 131.352 20.7335 130.055 20.7335H129.107V23.9029H125.958V14.1942H126.01H126.004ZM129.75 18.6351C130.599 18.6351 131 18.2938 131 17.5609V17.5108C131 17.1193 130.9 16.8782 130.698 16.731C130.5 16.5838 130.199 16.4867 129.75 16.4867H129.1V18.6821H129.75V18.6351Z" fill="#FEFEFE"/>
<path d="M27.4618 21.1242L24.5911 22.1835L26.0283 25.0505L30.1473 22.9947L32.8327 24.9875L36.5145 23.1169L13.0457 5.8561V34.9551L16.7275 33.0845V29.7213L21.0945 27.5396L19.7203 24.8615L16.6608 26.8543V13.0197L27.4581 21.1205L27.4618 21.1242ZM20.0352 38.0739C25.0283 38.0739 29.5842 36.0811 32.8289 32.7771C35.0736 30.5325 36.7589 27.6692 37.5701 24.4911L32.6401 26.984L29.9583 25.0542L18.4758 30.8473V34.2106L17.9757 34.4587L13.2938 36.7627C15.3533 37.6331 17.6609 38.0702 20.0352 38.0702V38.0739ZM38.0072 22.0613C38.0702 21.3761 38.1331 20.6908 38.1331 20.0055C38.1331 15.0199 36.1367 10.4713 32.8289 7.23027C29.5842 3.98926 25.0283 1.93351 20.0352 1.93351C17.4757 1.93351 14.9791 2.49283 12.7345 3.49291L38.0109 22.0613H38.0072ZM11.2344 4.23743C9.73793 5.04861 8.42673 6.04501 7.2414 7.2266C3.99667 10.4677 1.93722 15.0162 1.93722 20.0019C1.93722 24.9875 3.9337 29.5361 7.2414 32.7771C8.42673 33.9624 9.73793 34.9588 11.2344 35.7663V4.23743ZM39.8185 23.3651C39.1333 27.5396 37.0738 31.277 34.2031 34.1439C30.5843 37.7591 25.5913 40 20.0352 40C14.4791 40 9.4898 37.7553 5.86721 34.1439C2.24836 30.5287 0 25.5468 0 19.9981C0 14.4495 2.24836 9.46753 5.86721 5.85239C9.48607 2.24465 14.5421 0 20.0352 0C25.5283 0 30.5806 2.24465 34.2031 5.8561C37.822 9.47127 40.0704 14.4532 40.0704 20.0019C40.0704 21.1871 40.0074 22.3058 39.8222 23.3651H39.8185Z" fill="#F68E57"/>
<path d="M21.1566 23.8649L18.5342 25.6095V14.5195L27.4572 21.1239L24.5236 22.1832L26.4571 25.9206L23.0864 27.6022L21.1529 23.8649H21.1566Z" fill="#FEFEFE"/>
<path d="M44.6699 26.8057H50.8503V29.0176H47.5739V35.9254H44.667V26.8057H44.6699ZM56.111 33.8525C56.664 33.8525 57.1253 33.6218 57.4477 33.2078C57.7699 32.7938 57.9563 32.1935 57.9563 31.4572V31.3655C57.9563 30.5819 57.7729 30.0289 57.4477 29.6149C57.1253 29.2009 56.664 29.0146 56.0637 29.0146C55.5107 29.0146 55.0494 29.1979 54.7271 29.6149C54.4048 30.0289 54.2185 30.6292 54.2185 31.3655V31.4572C54.2185 32.2408 54.4018 32.8381 54.7271 33.2521C55.0494 33.6218 55.5107 33.8495 56.111 33.8495V33.8525ZM56.0193 36.1087C54.5437 36.1087 53.3431 35.6947 52.5122 34.8194C51.6369 33.9441 51.2199 32.8381 51.2199 31.4099V31.3182C51.2199 29.9373 51.6813 28.8313 52.6039 27.956C53.5265 27.0807 54.6798 26.6667 56.111 26.6667C57.5423 26.6667 58.7399 27.0807 59.6625 27.9116C60.5851 28.7396 61.0465 29.8455 61.0465 31.2739V31.3655C61.0465 32.7938 60.5851 33.9441 59.7098 34.8194C58.6955 35.6947 57.4949 36.1087 56.0193 36.1087ZM65.0622 31.8239C64.9705 32.6992 64.8315 33.2995 64.6482 33.7135H67.1381V29.0619H65.2455C65.1539 30.5819 65.1065 31.5045 65.0622 31.8268V31.8239ZM61.0937 35.9224V33.7105H61.6941C62.1553 33.4799 62.4777 32.7879 62.6167 31.5459C62.7083 30.9013 62.7083 29.334 62.7083 26.8027H69.9977V33.7105H71.1037V35.9224H61.0937ZM74.2883 26.8027H78.0263L80.8857 35.9224H77.8397L77.4257 34.4025H74.519L74.105 35.9224H71.429L74.2883 26.8027ZM75.0723 32.4685H76.8697L75.9943 29.1536L75.0723 32.4685Z" fill="#FEFEFE"/>
<path d="M110.42 35.5253V33.8355H106.519V32.3073L110.569 26.8281H112.656V31.9967H113.601V33.8355H112.656V35.5253H110.42ZM108.519 31.9967H110.42V29.3006L108.519 31.9967Z" fill="#F68E57"/>
<path d="M98.9971 35.5253V33.935L101.88 31.5495C102.161 31.3175 102.402 31.1105 102.6 30.9283C102.799 30.7377 102.96 30.5597 103.085 30.394C103.217 30.2283 103.312 30.071 103.37 29.9219C103.437 29.7645 103.47 29.603 103.47 29.4373C103.47 29.1474 103.387 28.9238 103.222 28.7664C103.064 28.609 102.836 28.5303 102.538 28.5303C102.14 28.5303 101.842 28.6505 101.644 28.8907C101.453 29.1309 101.358 29.4995 101.358 29.9964H99.1211C99.1211 29.4663 99.1917 28.9942 99.3324 28.5801C99.4737 28.1659 99.6844 27.818 99.9664 27.5364C100.256 27.2547 100.612 27.0394 101.035 26.8903C101.466 26.7412 101.966 26.6667 102.538 26.6667C103.076 26.6667 103.54 26.7371 103.93 26.8779C104.327 27.0104 104.658 27.2009 104.924 27.4494C105.188 27.6896 105.383 27.9795 105.508 28.3191C105.64 28.6587 105.706 29.0315 105.706 29.4373C105.706 29.7355 105.652 30.0213 105.545 30.2946C105.446 30.5679 105.3 30.833 105.11 31.0898C104.928 31.3465 104.708 31.5951 104.452 31.8353C104.194 32.0755 103.917 32.3115 103.619 32.5435L102.116 33.6865H105.83V35.5253H98.9971Z" fill="#F68E57"/>
<path d="M94.6437 35.6869C94.155 35.6869 93.6997 35.6081 93.277 35.4508C92.8544 35.2851 92.4864 35.0242 92.171 34.6681C91.8564 34.3119 91.6084 33.848 91.4257 33.2765C91.2517 32.6967 91.165 31.9968 91.165 31.1767V30.9283C91.165 30.1662 91.2517 29.516 91.4257 28.9776C91.6084 28.4392 91.8564 28.0002 92.171 27.6606C92.4864 27.3127 92.8544 27.0601 93.277 26.9027C93.6997 26.7453 94.155 26.6667 94.6437 26.6667C95.1324 26.6667 95.5877 26.7453 96.0104 26.9027C96.433 27.0601 96.8017 27.3127 97.1164 27.6606C97.431 28.0002 97.675 28.4392 97.849 28.9776C98.0317 29.516 98.1224 30.1662 98.1224 30.9283V31.1767C98.1224 31.9968 98.0317 32.6967 97.849 33.2765C97.675 33.848 97.431 34.3119 97.1164 34.6681C96.8017 35.0242 96.433 35.2851 96.0104 35.4508C95.5877 35.6081 95.1324 35.6869 94.6437 35.6869ZM94.6437 33.848C94.8097 33.848 94.967 33.8066 95.1157 33.7238C95.273 33.6409 95.4057 33.5001 95.5137 33.3013C95.6297 33.0943 95.7204 32.8209 95.787 32.4813C95.853 32.1335 95.8864 31.6986 95.8864 31.1767V30.9283C95.8864 30.4644 95.853 30.0793 95.787 29.7728C95.7204 29.4663 95.6297 29.2178 95.5137 29.0273C95.4057 28.8368 95.273 28.7043 95.1157 28.6297C94.967 28.5469 94.8097 28.5055 94.6437 28.5055C94.4784 28.5055 94.3164 28.5469 94.159 28.6297C94.0104 28.7043 93.8777 28.8368 93.7617 29.0273C93.6537 29.2178 93.567 29.4663 93.501 29.7728C93.4344 30.0793 93.401 30.4644 93.401 30.9283V31.1767C93.401 31.6986 93.4344 32.1335 93.501 32.4813C93.567 32.8209 93.6537 33.0943 93.7617 33.3013C93.8777 33.5001 94.0104 33.6409 94.159 33.7238C94.3164 33.8066 94.4784 33.848 94.6437 33.848Z" fill="#F68E57"/>
<path d="M83.333 35.5253V33.935L86.2157 31.5495C86.497 31.3175 86.737 31.1105 86.9363 30.9283C87.135 30.7377 87.2963 30.5597 87.4203 30.394C87.553 30.2283 87.6483 30.071 87.7063 29.9219C87.773 29.7645 87.8057 29.603 87.8057 29.4373C87.8057 29.1474 87.723 28.9238 87.557 28.7664C87.3997 28.609 87.1723 28.5303 86.8737 28.5303C86.4763 28.5303 86.1783 28.6505 85.9797 28.8907C85.789 29.1309 85.6937 29.4995 85.6937 29.9964H83.457C83.457 29.4663 83.5277 28.9942 83.6683 28.5801C83.809 28.1659 84.0203 27.818 84.3023 27.5364C84.5923 27.2547 84.9483 27.0394 85.3703 26.8903C85.801 26.7412 86.3023 26.6667 86.8737 26.6667C87.4123 26.6667 87.8763 26.7371 88.2657 26.8779C88.663 27.0104 88.9943 27.2009 89.2597 27.4494C89.5243 27.6896 89.719 27.9795 89.8437 28.3191C89.9757 28.6587 90.0423 29.0315 90.0423 29.4373C90.0423 29.7355 89.9883 30.0213 89.881 30.2946C89.781 30.5679 89.6363 30.833 89.4457 31.0898C89.2637 31.3465 89.0443 31.5951 88.7877 31.8353C88.5303 32.0755 88.253 32.3115 87.955 32.5435L86.4517 33.6865H90.1663V35.5253H83.333Z" fill="#F68E57"/>
<mask id="mask0_512_14382" style="mask-type:luminance" maskUnits="userSpaceOnUse" x="44" y="0" width="41" height="10">
<path d="M84.0777 0H44.667V9.99147H84.0777V0Z" fill="white"/>
</mask>
<g mask="url(#mask0_512_14382)">
<path d="M57.7608 5.15495L58.9735 7.9968L58.1015 7.9984L57.8704 7.52607L56.3912 7.5284L56.161 8.00213L55.2891 8.00327L56.4891 5.15769L57.7608 5.15495ZM57.0667 5.79283L56.6679 6.7918L57.5869 6.7904L57.1855 5.79283H57.0667Z" fill="#FEFEFE"/>
<path d="M61.4965 5.14909C61.8561 5.14909 62.2434 5.19984 62.2443 5.95155C62.2453 6.26559 62.13 6.4613 61.9976 6.53281C62.2216 6.64762 62.3339 6.8582 62.3349 7.204C62.3355 7.78527 62.1182 7.99213 61.59 7.99273L59.3336 7.99707L59.3291 5.15321L61.4965 5.14909ZM60.0766 6.22132L61.4 6.21936C61.513 6.21936 61.5867 6.16723 61.5861 6.02834C61.5861 5.88551 61.511 5.83733 61.3994 5.83752L60.0764 5.83987L60.0766 6.22132ZM60.0791 7.30727L61.3722 7.30527C61.5006 7.30527 61.5884 7.22927 61.5884 7.0904C61.5881 6.89507 61.4992 6.85587 61.3714 6.85587L60.0783 6.8578L60.0791 7.30727Z" fill="#FEFEFE"/>
<path d="M62.8203 5.14707L65.7064 5.14258L65.7081 5.87861L64.6394 5.88037L64.6428 7.98833L63.8964 7.98953L63.893 5.88174L62.8209 5.88311L62.8203 5.14707Z" fill="#FEFEFE"/>
<path d="M67.9405 8.02253C66.3693 8.02513 66.3389 7.92947 66.336 6.56539C66.3343 5.20516 66.3645 5.10191 67.9357 5.09899C69.4995 5.09683 69.5401 5.20007 69.5428 6.56028C69.5448 7.9162 69.5041 8.02 67.9405 8.02253ZM67.9396 7.28653C68.7941 7.28553 68.7975 7.28147 68.7961 6.56107C68.7941 5.83756 68.7915 5.83366 67.94 5.83521C67.0857 5.83619 67.0822 5.84032 67.0827 6.564C67.0842 7.28433 67.0874 7.28787 67.9396 7.28653Z" fill="#FEFEFE"/>
<path d="M72.9587 6.22412L72.2114 6.22529C72.2114 5.91145 72.15 5.82798 71.468 5.82917C70.7347 5.83015 70.732 5.85405 70.7327 6.55795C70.7347 7.2658 70.738 7.28187 71.47 7.28087C72.1427 7.27987 72.2134 7.21993 72.2127 6.882L72.9587 6.88C72.9607 7.85527 72.9134 8.01373 71.472 8.01633C70.064 8.01887 69.9894 7.89527 69.9874 6.55501C69.9847 5.22281 70.0587 5.09527 71.4674 5.09313C72.8954 5.09057 72.9567 5.25769 72.9587 6.22412Z" fill="#FEFEFE"/>
<path d="M73.5156 5.1297L76.403 5.125L76.4043 5.86104L75.335 5.863L75.339 7.971L74.5923 7.972L74.5883 5.86398L73.517 5.86535L73.5156 5.1297Z" fill="#FEFEFE"/>
<path d="M79.2904 5.11979L80.5024 7.96187L79.6317 7.9632L79.399 7.49033L77.9204 7.49267L77.6904 7.9662L76.8184 7.96753L78.0184 5.12194L79.2904 5.11979ZM78.5957 5.75767L78.197 6.7564L79.1164 6.75507L78.715 5.75689L78.5957 5.75767Z" fill="#FEFEFE"/>
<path d="M80.9326 5.11733L83.8186 5.11263L83.8206 5.84848L82.7519 5.85043L82.7553 7.95847L82.0086 7.9594L82.006 5.852L80.9333 5.85337L80.9326 5.11733Z" fill="#FEFEFE"/>
<path d="M55.4509 9.98433L55.2178 9.98473L55.6646 8.79353L55.8826 8.793L56.3338 9.98273L56.1007 9.98293L56.014 9.73333L55.5372 9.73373L55.4509 9.98433ZM55.9554 9.55333L55.7746 9.02453L55.5944 9.55353L55.9554 9.55333Z" fill="#FEFEFE"/>
<path d="M56.8235 9.98193H56.6065L56.6045 8.7922L56.8216 8.7918L56.823 9.26787L57.3537 9.26747L57.3533 8.7912L57.5714 8.791L57.5727 9.9808L57.3547 9.9812L57.3537 9.44733L56.823 9.44847L56.8235 9.98193Z" fill="#FEFEFE"/>
<path d="M58.0783 9.9804L57.8447 9.9806L58.292 8.78927L58.5106 8.78907L58.9614 9.979H58.7283L58.641 9.72927L58.1651 9.73L58.0783 9.9804ZM58.5833 9.5494L58.402 9.021L58.2222 9.5496L58.5833 9.5494Z" fill="#FEFEFE"/>
<path d="M59.0742 9.7974C59.3344 9.84287 59.3413 9.49573 59.3403 9.25473L59.3399 8.78693L60.154 8.78513L60.157 9.97587L59.9395 9.97627L59.9376 8.9658L59.5576 8.9664L59.5582 9.3184C59.5586 9.61793 59.5295 10.0499 59.0744 9.97767L59.0742 9.7974Z" fill="#FEFEFE"/>
<path d="M61.3636 8.78427L61.5769 8.78387L61.5782 9.9742L61.3602 9.9744L61.3588 9.104L60.7938 9.9756L60.581 9.97593L60.5791 8.7852L60.7967 8.7846L60.7981 9.65587L61.3636 8.78427Z" fill="#FEFEFE"/>
<path d="M61.877 8.96373V8.78347L62.8438 8.78193L62.8442 8.96233L62.4694 8.96313L62.4714 9.97267L62.2534 9.97347L62.2514 8.96313L61.877 8.96373Z" fill="#FEFEFE"/>
<path d="M63.9291 8.78013L64.1425 8.77993L64.1445 9.96973H63.9267L63.9255 9.09987L63.3598 9.97127H63.1475L63.1445 8.78153L63.3626 8.78113L63.3639 9.65173L63.9291 8.78013Z" fill="#FEFEFE"/>
<path d="M64.7381 8.77893L64.739 9.1002C64.739 9.214 64.7459 9.29927 64.9898 9.29867C65.0846 9.29827 65.1883 9.28807 65.2058 9.28613L65.2044 8.77773L65.4223 8.77733L65.4244 9.96807L65.207 9.96847L65.2058 9.46693C65.1389 9.47187 65.0386 9.47873 64.9626 9.47873C64.7072 9.47947 64.5214 9.4166 64.5214 9.1494L64.5205 8.77893H64.7381Z" fill="#FEFEFE"/>
<path d="M66.6715 9.2662V9.44607L66.0657 9.44687L66.0663 9.78753L66.7607 9.78633L66.7611 9.9664L65.8485 9.96773L65.8467 8.7772L66.7403 8.77607L66.7409 8.95607L66.0648 8.95687L66.0654 9.2662H66.6715Z" fill="#FEFEFE"/>
<path d="M68.1061 9.5572C68.0905 9.7374 67.9951 9.99973 67.5919 10.0001C67.4998 10.0001 67.0011 9.99253 67 9.39067C66.9997 8.90067 67.282 8.73907 67.5782 8.73827C67.9864 8.73733 68.0785 8.98747 68.0895 9.15713L67.8731 9.15793C67.8587 9.0588 67.8005 8.91833 67.5781 8.91873C67.3125 8.91873 67.2324 9.1352 67.2329 9.38167C67.2333 9.6606 67.3871 9.82007 67.6008 9.82007C67.7991 9.81913 67.8831 9.68513 67.8902 9.5576L68.1061 9.5572Z" fill="#FEFEFE"/>
<path d="M69.1873 8.77107L69.4793 8.7708L68.9873 9.26453L69.514 9.9604L69.2213 9.9614L68.828 9.41127L68.668 9.56627V9.9622L68.4497 9.96273L68.4482 8.7724L68.6664 8.772L68.6673 9.30747L69.1873 8.77107Z" fill="#FEFEFE"/>
<path d="M70.2995 8.73373C70.4035 8.73333 70.8835 8.74607 70.8841 9.3632C70.8848 9.98073 70.4055 9.9952 70.3008 9.9954C70.1975 9.9956 69.7168 9.98287 69.7168 9.36513C69.7155 8.7482 70.1961 8.73373 70.2995 8.73373ZM70.3015 9.81513C70.5961 9.81453 70.6515 9.54753 70.6508 9.3638C70.6508 9.1804 70.5941 8.9134 70.2995 8.9136C70.0048 8.91433 69.9501 9.1816 69.9501 9.36493C69.9501 9.54873 70.0068 9.81533 70.3015 9.81513Z" fill="#FEFEFE"/>
<path d="M72.0633 9.25713V9.43693L71.4586 9.43813V9.7782L72.1533 9.77707V9.95727L71.2413 9.95867L71.2393 8.76853L72.1326 8.76693L72.1333 8.947L71.4566 8.94813L71.4586 9.25787L72.0633 9.25713Z" fill="#FEFEFE"/>
<path d="M73.0745 9.95507L72.8418 9.95567L73.2891 8.76453L73.5065 8.76433L73.9585 9.95367L73.7245 9.95407L73.6385 9.70453L73.1618 9.70467L73.0745 9.95507ZM73.5798 9.52427L73.3985 8.99587L73.2191 9.52507L73.5798 9.52427Z" fill="#FEFEFE"/>
<path d="M74.4485 9.95347L74.2298 9.95373L74.2285 8.76373L75.0078 8.7624V8.9426L74.4465 8.9434L74.4485 9.95347Z" fill="#FEFEFE"/>
<path d="M76.1326 9.24933L76.1339 9.4294L75.5279 9.43033V9.77087L76.2233 9.76967V9.94953L75.3113 9.95107L75.3086 8.76113L76.2026 8.75973V8.9396L75.5266 8.9408L75.5279 9.25033L76.1326 9.24933Z" fill="#FEFEFE"/>
<path d="M76.7493 9.94973L76.5313 9.94993L76.5293 8.7594L76.7466 8.7588L76.7473 9.23527L77.2793 9.23407L77.278 8.7578H77.496L77.498 9.948L77.28 9.9486L77.2793 9.41433L76.748 9.41527L76.7493 9.94973Z" fill="#FEFEFE"/>
<path d="M77.7969 8.9366V8.7564L78.7635 8.7552V8.93507L78.3889 8.93627L78.3902 9.94613L78.1729 9.94633L78.1715 8.9364L77.7969 8.9366Z" fill="#FEFEFE"/>
<path d="M80.0904 9.53727C80.0737 9.71813 79.979 9.9802 79.5764 9.9804C79.4844 9.9806 78.9857 9.97313 78.9844 9.37093C78.9837 8.88133 79.2657 8.71933 79.5624 8.71873C79.9704 8.718 80.063 8.96773 80.0737 9.1384H79.857C79.8437 9.03987 79.785 8.8984 79.563 8.8992C79.297 8.8994 79.2164 9.11567 79.2177 9.36213C79.2184 9.64107 79.3717 9.8008 79.5864 9.8008C79.7837 9.8002 79.8684 9.6654 79.875 9.53807L80.0904 9.53727Z" fill="#FEFEFE"/>
<path d="M80.3105 8.93353V8.75293L81.2772 8.75193L81.2779 8.932L80.9032 8.9324L80.9059 9.94233L80.6865 9.94267L80.6859 8.9326L80.3105 8.93353Z" fill="#FEFEFE"/>
<path d="M82.1401 8.75C82.4435 8.7498 82.5035 8.91947 82.5035 9.05013C82.5035 9.1818 82.4221 9.2856 82.3068 9.3064V9.30933C82.4055 9.3262 82.5535 9.39373 82.5535 9.60673C82.5548 9.90747 82.2975 9.94033 82.1188 9.94053L81.5808 9.94173L81.5781 8.751L82.1401 8.75ZM81.7975 9.23367L82.0848 9.23333C82.2055 9.23293 82.2788 9.19567 82.2788 9.09187C82.2781 8.93373 82.1255 8.93 82.0788 8.93L81.7968 8.9308L81.7975 9.23367ZM81.7975 9.76067L82.0961 9.76053C82.2288 9.75953 82.3288 9.7274 82.3288 9.5828C82.3288 9.42293 82.1908 9.41333 82.1001 9.41353L81.7975 9.41393V9.76067Z" fill="#FEFEFE"/>
<path d="M83.445 8.71227C83.549 8.71227 84.029 8.7252 84.0296 9.34193C84.031 9.9596 83.551 9.97413 83.4476 9.97413C83.343 9.97413 82.863 9.961 82.8623 9.34467C82.8616 8.72693 83.341 8.71267 83.445 8.71227ZM83.447 9.79407C83.741 9.79307 83.797 9.52647 83.797 9.34267C83.7963 9.15913 83.7396 8.89193 83.4456 8.89267C83.151 8.89307 83.0956 9.16007 83.0956 9.34407C83.0956 9.52767 83.1523 9.79407 83.447 9.79407Z" fill="#FEFEFE"/>
<path d="M55.5924 3.66661L53.7622 0.509101C53.6275 0.375098 53.4642 0.313386 53.3038 0.334936C53.144 0.35629 53.0034 0.458752 52.9077 0.623905L51.1058 3.75907C51.0136 3.91952 50.9958 4.06645 51.0584 4.17303C51.1196 4.27921 51.2565 4.3372 51.4423 4.33699L55.0596 4.32858C55.2512 4.32858 55.4096 4.25688 55.508 4.12836C55.6059 4.00004 55.633 3.82841 55.5924 3.66661Z" fill="#FEFEFE"/>
<path d="M47.557 0.380699L47.5205 0.587581C47.5244 0.684559 47.5554 0.782319 47.6103 0.877919L49.4263 4.00407C49.5218 4.16785 49.644 4.25817 49.7704 4.25817C49.8969 4.25757 50.019 4.16708 50.1132 4.0029L51.9151 0.868126C51.977 0.760373 52.0076 0.646159 52.0027 0.538406L51.9658 0.371295C51.9062 0.226125 51.7735 0.117198 51.5931 0.0643024C51.5639 0.0601881 47.9571 0.0684167 47.9571 0.0684167C47.7489 0.125818 47.6166 0.235136 47.557 0.380699ZM49.7698 4.05971C49.732 4.05932 49.6646 4.01897 49.5987 3.90493L47.7822 0.778006C47.744 0.712179 47.722 0.643219 47.7203 0.579549L47.7401 0.456515C47.7766 0.367573 47.8642 0.298807 47.9854 0.262957C47.9867 0.266483 51.5645 0.258449 51.5645 0.258449C51.6584 0.289991 51.7456 0.358756 51.7825 0.447701L51.8039 0.546244C51.8068 0.616771 51.786 0.694353 51.7424 0.769579L49.9408 3.90377C49.8746 4.01857 49.8071 4.05932 49.7698 4.05971Z" fill="#FEFEFE"/>
<path d="M46.5179 0.866779C46.5004 0.889112 44.7048 4.01213 44.7048 4.01213C44.6942 4.03897 44.6738 4.22038 44.6738 4.22038C44.6787 4.33068 44.714 4.43157 44.777 4.51308C44.8774 4.64395 45.0401 4.71603 45.2336 4.71525L48.852 4.70702C49.042 4.70663 49.182 4.64571 49.2441 4.53619L49.2804 4.37436L49.1941 4.11166L47.3777 0.986093C47.2812 0.818586 47.1369 0.714559 46.973 0.692613C46.8165 0.672239 46.6556 0.733952 46.5179 0.866779ZM46.6732 0.987266C46.7487 0.919479 46.852 0.877552 46.9475 0.889899C47.0488 0.903026 47.1408 0.972573 47.2063 1.08561L49.0227 4.21176L49.082 4.38299L49.0712 4.43764C49.0528 4.47076 48.9839 4.50856 48.8516 4.50897L45.2336 4.51679C45.1026 4.51719 44.9962 4.47311 44.9346 4.39259C44.8964 4.34341 44.8756 4.28249 44.8726 4.21255L44.8887 4.08481C44.8934 4.08461 46.6732 0.987266 46.6732 0.987266Z" fill="#FEFEFE"/>
<path d="M44.8191 5.29382C44.7467 5.38687 44.7124 5.5054 44.7173 5.63371L44.7377 5.76693C44.7495 5.79378 46.0229 7.9882 46.0229 7.9882L46.5594 8.91053C46.7144 9.06493 46.8765 9.12567 47.0319 9.10467C47.1966 9.08233 47.3392 8.97793 47.4366 8.8098L49.2376 5.67585C49.3311 5.51402 49.3485 5.35906 49.2866 5.2511C49.2221 5.14119 49.0831 5.08125 48.8931 5.08204L45.2751 5.09007C45.0812 5.09046 44.9195 5.16256 44.8191 5.29382ZM44.9161 5.62607C44.9132 5.54399 44.9339 5.47091 44.9771 5.4147C45.0387 5.33379 45.1449 5.28892 45.2755 5.28853L48.894 5.28069C49.0268 5.28029 49.095 5.3183 49.1145 5.35101C49.1197 5.36101 49.1233 5.37512 49.1246 5.39315C49.126 5.43525 49.1115 5.49776 49.066 5.57612L47.2635 8.71067C47.1986 8.82433 47.1071 8.89427 47.0057 8.9078C46.9111 8.92073 46.8074 8.8782 46.7139 8.78947C46.7129 8.78087 46.1949 7.88787 46.1949 7.88787L44.9208 5.69425C44.9316 5.7209 44.9161 5.62607 44.9161 5.62607Z" fill="#FEFEFE"/>
<path d="M49.4833 5.76653L47.6814 8.90053C47.6194 9.00827 47.5888 9.12247 47.5932 9.2298L47.63 9.39713C47.6902 9.54273 47.8229 9.65167 48.0047 9.70473C48.0324 9.70847 51.6387 9.7004 51.6387 9.7004C51.8476 9.6424 51.9799 9.53293 52.0395 9.38793L52.076 9.18167C52.072 9.08367 52.0414 8.98653 51.9858 8.89113L50.1703 5.76476C50.0748 5.60059 49.9527 5.51107 49.8262 5.51107C49.6996 5.51087 49.5778 5.60138 49.4833 5.76653ZM48.032 9.5096C47.9374 9.47807 47.8508 9.40927 47.8139 9.32073L47.7922 9.2218C47.7898 9.15187 47.81 9.07487 47.8541 8.99947L49.656 5.86508C49.7219 5.75007 49.7894 5.70933 49.8266 5.70933C49.8644 5.70933 49.9313 5.74947 49.9982 5.86429L51.8142 8.9906C51.8524 9.05647 51.8744 9.1256 51.8768 9.18907L51.856 9.31253C51.8191 9.40007 51.7324 9.46887 51.6103 9.50533C51.6095 9.502 48.032 9.5096 48.032 9.5096Z" fill="#FEFEFE"/>
<path d="M50.3331 5.21903C50.2696 5.32914 50.2881 5.4796 50.3831 5.64377L52.1986 8.77073C52.2961 8.9382 52.44 9.04207 52.6037 9.0634C52.7597 9.0832 52.9207 9.02187 53.0584 8.8906C53.0753 8.86807 54.8719 5.74349 54.8719 5.74349C54.8811 5.71723 54.9029 5.53563 54.9029 5.53563C54.8985 5.42572 54.8631 5.32405 54.7997 5.24255C54.6993 5.11129 54.5366 5.03998 54.3427 5.04037L50.7247 5.04801C50.5353 5.04938 50.3957 5.10953 50.3331 5.21903ZM50.5547 5.54386C50.5129 5.47215 50.4971 5.41455 50.4951 5.37341C50.4941 5.34873 50.4985 5.33032 50.5047 5.31778C50.5237 5.28564 50.5929 5.24763 50.7247 5.24706L54.3427 5.23883C54.474 5.23883 54.5805 5.28329 54.6431 5.36342C54.6809 5.41338 54.7013 5.47372 54.7046 5.54386L54.6885 5.6712C54.6833 5.67218 52.9035 8.76913 52.9035 8.76913C52.8278 8.83593 52.7241 8.87867 52.6288 8.86653C52.5274 8.8538 52.4359 8.78407 52.3705 8.6712L50.5547 5.54386Z" fill="#FEFEFE"/>
<mask id="mask1_512_14382" style="mask-type:luminance" maskUnits="userSpaceOnUse" x="44" y="0" width="41" height="10">
<path d="M84.0777 0H44.667V9.99147H84.0777V0Z" fill="white"/>
</mask>
<g mask="url(#mask1_512_14382)">
<path d="M57.7618 5.15495L58.9744 7.9968L58.1025 7.9984L57.8713 7.52607L56.3922 7.5284L56.162 8.00213L55.29 8.00327L56.49 5.15769L57.7618 5.15495ZM57.0676 5.79283L56.6688 6.7918L57.5878 6.7904L57.1864 5.79283H57.0676Z" fill="#FEFEFE"/>
<path d="M61.4965 5.14844C61.8561 5.14844 62.2434 5.19919 62.2443 5.9509C62.2453 6.26495 62.13 6.46065 61.9976 6.53216C62.2216 6.64697 62.3339 6.8576 62.3349 7.20333C62.3355 7.7846 62.1182 7.99153 61.59 7.99207L59.3336 7.9964L59.3291 5.15257L61.4965 5.14844ZM60.0766 6.22067L61.4 6.21871C61.513 6.21871 61.5867 6.16659 61.5861 6.02769C61.5861 5.88487 61.511 5.83668 61.3994 5.83687L60.0764 5.83922L60.0766 6.22067ZM60.0791 7.3066L61.3722 7.3046C61.5006 7.3046 61.5884 7.2286 61.5884 7.08973C61.588 6.8944 61.4992 6.8552 61.3714 6.8552L60.0783 6.8572L60.0791 7.3066Z" fill="#FEFEFE"/>
<path d="M62.8203 5.14643L65.7065 5.14193L65.7082 5.87797L64.6394 5.87972L64.6428 7.98773L63.8964 7.98887L63.893 5.88109L62.8209 5.88246L62.8203 5.14643Z" fill="#FEFEFE"/>
<path d="M67.9406 8.02253C66.3693 8.02513 66.339 7.92947 66.336 6.56539C66.3343 5.20516 66.3645 5.10191 67.9357 5.09899C69.4999 5.09683 69.5406 5.20007 69.5426 6.56028C69.5453 7.9162 69.5039 8.02 67.9406 8.02253ZM67.9397 7.28653C68.7939 7.28553 68.7973 7.28147 68.7959 6.56107C68.7946 5.83756 68.7919 5.83366 67.94 5.83521C67.0857 5.83619 67.0822 5.84032 67.0828 6.564C67.0843 7.28433 67.0874 7.28787 67.9397 7.28653Z" fill="#FEFEFE"/>
<path d="M72.9587 6.22347L72.2114 6.22464C72.2114 5.91079 72.15 5.82733 71.4687 5.82851C70.7354 5.82949 70.732 5.8534 70.7334 6.5573C70.7347 7.26513 70.738 7.2812 71.4707 7.2802C72.1427 7.27927 72.214 7.21927 72.2134 6.88133L72.9594 6.8794C72.9607 7.8546 72.914 8.01313 71.472 8.01567C70.064 8.0182 69.9894 7.8946 69.9874 6.55435C69.9847 5.22216 70.0594 5.09462 71.468 5.09247C72.896 5.08992 72.9574 5.25704 72.9587 6.22347Z" fill="#FEFEFE"/>
<path d="M73.5156 5.1297L76.403 5.125L76.4043 5.86104L75.335 5.863L75.339 7.971L74.5923 7.972L74.5883 5.86398L73.517 5.86535L73.5156 5.1297Z" fill="#FEFEFE"/>
<path d="M79.2907 5.11979L80.5027 7.96187L79.632 7.9632L79.3993 7.49033L77.9213 7.49267L77.6907 7.9662L76.8193 7.96753L78.0187 5.12194L79.2907 5.11979ZM78.5967 5.75767L78.1973 6.7564L79.1167 6.75507L78.7153 5.75689L78.5967 5.75767Z" fill="#FEFEFE"/>
<path d="M80.9326 5.11668L83.8193 5.11198L83.8213 5.84783L82.7519 5.84977L82.7553 7.9578L82.0093 7.9588L82.006 5.85135L80.9333 5.85271L80.9326 5.11668Z" fill="#FEFEFE"/>
<path d="M55.4509 9.98433L55.2178 9.98473L55.6646 8.79353L55.8826 8.793L56.3338 9.98273L56.1007 9.98293L56.014 9.73333L55.5372 9.73373L55.4509 9.98433ZM55.9554 9.55333L55.7746 9.02453L55.5944 9.55353L55.9554 9.55333Z" fill="#FEFEFE"/>
<path d="M56.8245 9.98133H56.6075L56.6055 8.79153L56.8225 8.79113L56.8239 9.2672L57.3547 9.2668L57.3543 8.7906L57.5723 8.79033L57.5737 9.98013L57.3557 9.98053L57.3547 9.44667L56.8239 9.44787L56.8245 9.98133Z" fill="#FEFEFE"/>
<path d="M58.0792 9.97973L57.8457 9.97993L58.2929 8.7886L58.5116 8.7884L58.9624 9.9784H58.7292L58.642 9.7286L58.1661 9.72933L58.0792 9.97973ZM58.5843 9.54873L58.4029 9.02033L58.2232 9.54893L58.5843 9.54873Z" fill="#FEFEFE"/>
<path d="M59.0752 9.7968C59.3354 9.8422 59.3423 9.49507 59.3413 9.25413L59.3409 8.78627L60.155 8.78453L60.1579 9.97527L59.9405 9.97567L59.9385 8.96513L59.5585 8.96573L59.5591 9.3178C59.5595 9.61733 59.5305 10.0493 59.0754 9.977L59.0752 9.7968Z" fill="#FEFEFE"/>
<path d="M61.3636 8.7836L61.5769 8.7832L61.5783 9.97353L61.3602 9.97373L61.3589 9.10333L60.7938 9.97493L60.5811 9.97533L60.5791 8.7846L60.7968 8.784L60.7981 9.6552L61.3636 8.7836Z" fill="#FEFEFE"/>
<path d="M61.877 8.96307V8.7828L62.8438 8.78127L62.8442 8.96167L62.4695 8.96247L62.4715 9.972L62.2534 9.9728L62.2515 8.96247L61.877 8.96307Z" fill="#FEFEFE"/>
<path d="M63.9291 8.78013L64.1425 8.77993L64.1445 9.96973H63.9267L63.9255 9.09987L63.3598 9.97127H63.1475L63.1445 8.78153L63.3626 8.78113L63.3639 9.65173L63.9291 8.78013Z" fill="#FEFEFE"/>
<path d="M64.738 8.77827L64.739 9.09953C64.739 9.2134 64.7458 9.2986 64.9897 9.298C65.0846 9.2976 65.1882 9.28747 65.2058 9.28547L65.2044 8.77707L65.4223 8.77667L65.4243 9.96747L65.2069 9.9678L65.2058 9.46633C65.1388 9.4712 65.0386 9.47807 64.9625 9.47807C64.7072 9.4788 64.5214 9.41593 64.5214 9.14873L64.5205 8.77827H64.738Z" fill="#FEFEFE"/>
<path d="M66.6715 9.26553V9.4454L66.0657 9.4462L66.0663 9.78687L66.7607 9.78567L66.7611 9.96573L65.8485 9.96713L65.8467 8.77653L66.7403 8.7754L66.7409 8.9554L66.0648 8.9562L66.0653 9.26553H66.6715Z" fill="#FEFEFE"/>
<path d="M68.1061 9.55653C68.0905 9.7368 67.9951 9.99907 67.5919 9.99947C67.4998 9.99947 67.0011 9.99187 67 9.39C66.9997 8.9 67.282 8.7384 67.5782 8.7376C67.9864 8.73667 68.0785 8.9868 68.0895 9.15647L67.8731 9.15727C67.8587 9.05813 67.8005 8.91767 67.578 8.91807C67.3125 8.91807 67.2324 9.13453 67.2329 9.381C67.2333 9.66 67.3871 9.81947 67.6008 9.81947C67.7991 9.81847 67.8831 9.68447 67.8902 9.55693L68.1061 9.55653Z" fill="#FEFEFE"/>
<path d="M69.187 8.77107L69.4796 8.7708L68.987 9.26453L69.5143 9.9604L69.2216 9.9614L68.8276 9.41127L68.6676 9.56627L68.6683 9.9622L68.4497 9.96273L68.4482 8.7724L68.6664 8.772L68.667 9.30747L69.187 8.77107Z" fill="#FEFEFE"/>
<path d="M70.3004 8.73307C70.4044 8.73267 70.8838 8.7454 70.8851 9.36253C70.8858 9.98007 70.4058 9.99453 70.3018 9.99473C70.1978 9.99493 69.7178 9.9822 69.7178 9.36447C69.7164 8.7476 70.1971 8.73307 70.3004 8.73307ZM70.3018 9.81453C70.5964 9.81393 70.6524 9.54687 70.6518 9.36313C70.6511 9.17973 70.5944 8.91273 70.3004 8.91293C70.0058 8.91373 69.9504 9.18093 69.9504 9.36433C69.9504 9.54807 70.0078 9.81467 70.3018 9.81453Z" fill="#FEFEFE"/>
<path d="M72.0642 9.25647V9.43627L71.4589 9.43747V9.7776L72.1536 9.7764V9.9566L71.2422 9.958L71.2402 8.76787L72.1336 8.76627L72.1342 8.94633L71.4576 8.94747L71.4589 9.2572L72.0642 9.25647Z" fill="#FEFEFE"/>
<path d="M73.0751 9.9544L72.8418 9.955L73.2891 8.76387L73.5071 8.76367L73.9585 9.95307L73.7245 9.9534L73.6391 9.70387L73.1618 9.70407L73.0751 9.9544ZM73.5798 9.5236L73.3985 8.9952L73.2191 9.5244L73.5798 9.5236Z" fill="#FEFEFE"/>
<path d="M74.4485 9.95287L74.2305 9.95307L74.2285 8.76307L75.0078 8.76173L75.0085 8.94193L74.4465 8.94273L74.4485 9.95287Z" fill="#FEFEFE"/>
<path d="M76.1326 9.24867L76.1333 9.42873L75.5273 9.42973L75.5279 9.7702L76.2233 9.769V9.94887L75.3106 9.95047L75.3086 8.76047L76.2019 8.75913V8.93893L75.5259 8.94013L75.5279 9.24967L76.1326 9.24867Z" fill="#FEFEFE"/>
<path d="M76.7493 9.94907L76.5313 9.94927L76.5293 8.75873L76.7466 8.75813L76.7473 9.2346L77.2786 9.2334L77.2773 8.75713H77.4953L77.4973 9.94733L77.2793 9.94793L77.2786 9.41367L76.748 9.41467L76.7493 9.94907Z" fill="#FEFEFE"/>
<path d="M77.7979 8.9366V8.7564L78.7638 8.7552V8.93507L78.3899 8.93627L78.3912 9.94613L78.1739 9.94633L78.1725 8.9364L77.7979 8.9366Z" fill="#FEFEFE"/>
<path d="M80.0914 9.5366C80.074 9.71747 79.98 9.9796 79.5774 9.97973C79.4847 9.97993 78.986 9.97253 78.9854 9.37027C78.984 8.88073 79.266 8.71867 79.5634 8.71813C79.9714 8.71733 80.0634 8.96713 80.074 9.13773H79.8574C79.844 9.0392 79.786 8.89773 79.5634 8.89853C79.298 8.89873 79.2174 9.115 79.2187 9.36147C79.2187 9.64047 79.3727 9.80013 79.5867 9.80013C79.7847 9.79953 79.8687 9.66473 79.8754 9.5374L80.0914 9.5366Z" fill="#FEFEFE"/>
<path d="M80.3112 8.93293L80.3105 8.75227L81.2772 8.75133L81.2779 8.93133L80.9032 8.93173L80.9059 9.94167L80.6872 9.94207L80.6859 8.93193L80.3112 8.93293Z" fill="#FEFEFE"/>
<path d="M82.1411 8.74933C82.4438 8.74913 82.5044 8.9188 82.5044 9.04947C82.5044 9.18113 82.4231 9.28493 82.3071 9.30573V9.30867C82.4064 9.32553 82.5538 9.39313 82.5538 9.60607C82.5558 9.9068 82.2978 9.93973 82.1191 9.93987L81.5818 9.94107L81.5791 8.75033L82.1411 8.74933ZM81.7978 9.23307L82.0858 9.23267C82.2064 9.23227 82.2798 9.19507 82.2798 9.0912C82.2784 8.93307 82.1258 8.9294 82.0798 8.9294L81.7978 8.9302V9.23307ZM81.7984 9.76007L82.0971 9.75987C82.2298 9.75887 82.3298 9.72673 82.3298 9.58213C82.3298 9.42227 82.1911 9.41267 82.1011 9.41287L81.7984 9.41327V9.76007Z" fill="#FEFEFE"/>
<path d="M83.445 8.71227C83.5496 8.71227 84.029 8.7252 84.0303 9.34193C84.031 9.9596 83.5516 9.97413 83.4476 9.97413C83.3436 9.97413 82.863 9.961 82.8623 9.34467C82.8616 8.72693 83.3416 8.71267 83.445 8.71227ZM83.4476 9.79407C83.7416 9.79307 83.797 9.52647 83.797 9.34267C83.7963 9.15913 83.7403 8.89193 83.4456 8.89267C83.151 8.89307 83.0963 9.16007 83.0963 9.34407C83.0963 9.52767 83.1523 9.79407 83.4476 9.79407Z" fill="#FEFEFE"/>
<path d="M55.5924 3.66661L53.7623 0.509101C53.6275 0.375098 53.4642 0.313386 53.3038 0.334936C53.144 0.35629 53.0034 0.458752 52.9077 0.623905L51.1058 3.75907C51.0136 3.91952 50.9958 4.06645 51.0584 4.17303C51.1195 4.27921 51.2566 4.3372 51.4422 4.33699L55.0596 4.32858C55.2512 4.32858 55.4096 4.25688 55.508 4.12836C55.6059 4.00004 55.633 3.82841 55.5924 3.66661Z" fill="#FEFEFE"/>
<path d="M47.557 0.380048L47.5205 0.586931C47.5244 0.683907 47.5554 0.781667 47.6103 0.877267L49.4264 4.00342C49.5218 4.16721 49.644 4.25751 49.7704 4.25751C49.897 4.25693 50.0191 4.16643 50.1132 4.00225L51.9151 0.867473C51.977 0.759727 52.0076 0.645508 52.0028 0.537756L51.9659 0.370645C51.9063 0.225475 51.7736 0.116548 51.5932 0.063652C51.564 0.0595378 47.9572 0.067766 47.9572 0.067766C47.749 0.125168 47.6166 0.234485 47.557 0.380048ZM49.7699 4.05905C49.732 4.05867 49.6646 4.01831 49.5987 3.90428L47.7823 0.777353C47.744 0.711527 47.7221 0.642568 47.7203 0.578899L47.7401 0.455865C47.7766 0.366922 47.8642 0.298157 47.9854 0.262306C47.9868 0.265833 51.5645 0.257799 51.5645 0.257799C51.6584 0.289341 51.7457 0.358106 51.7826 0.44705L51.804 0.545593C51.8069 0.61612 51.7861 0.6937 51.7424 0.768933L49.9408 3.90311C49.8746 4.01793 49.8071 4.05867 49.7699 4.05905Z" fill="#FEFEFE"/>
<path d="M46.5178 0.866779C46.5004 0.889112 44.7048 4.01213 44.7048 4.01213C44.6942 4.03897 44.6738 4.22038 44.6738 4.22038C44.6787 4.33068 44.714 4.43157 44.777 4.51308C44.8773 4.64395 45.0401 4.71603 45.2336 4.71525L48.8519 4.70702C49.0419 4.70663 49.1819 4.64571 49.2441 4.53619L49.2804 4.37436L49.1941 4.11166L47.3776 0.986093C47.2812 0.818586 47.1369 0.714559 46.973 0.692613C46.8165 0.672239 46.6555 0.733952 46.5178 0.866779ZM46.6732 0.987266C46.7486 0.919479 46.852 0.877552 46.9475 0.889899C47.0488 0.903026 47.1408 0.972573 47.2063 1.08561L49.0227 4.21176L49.0819 4.38299L49.0712 4.43764C49.0527 4.47076 48.9839 4.50856 48.8516 4.50897L45.2336 4.51679C45.1026 4.51719 44.9962 4.47311 44.9346 4.39259C44.8964 4.34341 44.8756 4.28249 44.8726 4.21255L44.8887 4.08481C44.8934 4.08461 46.6732 0.987266 46.6732 0.987266Z" fill="#FEFEFE"/>
<path d="M44.819 5.29317C44.7466 5.38622 44.7124 5.50475 44.7173 5.63307L44.7376 5.76629C44.7494 5.79313 46.0229 7.98753 46.0229 7.98753L46.5594 8.90987C46.7145 9.06427 46.8765 9.125 47.0319 9.104C47.1966 9.08167 47.3392 8.97727 47.4366 8.8092L49.2375 5.67519C49.331 5.51337 49.3485 5.35841 49.2866 5.25045C49.222 5.14054 49.083 5.08059 48.893 5.08139L45.2751 5.08942C45.0812 5.08981 44.9194 5.16191 44.819 5.29317ZM44.9161 5.62542C44.9131 5.54335 44.9339 5.47026 44.977 5.41405C45.0386 5.33313 45.1449 5.28827 45.2755 5.28788L48.894 5.28003C49.0268 5.27965 49.095 5.31765 49.1144 5.35036C49.1197 5.36035 49.1233 5.37447 49.1246 5.39249C49.126 5.43461 49.1114 5.49711 49.066 5.57547L47.2634 8.71007C47.1986 8.82367 47.107 8.8936 47.0056 8.90713C46.9111 8.92007 46.8074 8.87753 46.7139 8.7888C46.7129 8.7802 46.1949 7.8872 46.1949 7.8872L44.9208 5.69361C44.9316 5.72025 44.9161 5.62542 44.9161 5.62542Z" fill="#FEFEFE"/>
<path d="M49.4833 5.76589L47.6814 8.89987C47.6194 9.0076 47.5888 9.1218 47.5932 9.2292L47.63 9.39653C47.6902 9.54207 47.8229 9.651 48.0047 9.70407C48.0324 9.7078 51.6387 9.69973 51.6387 9.69973C51.8476 9.6418 51.9799 9.53227 52.0395 9.38727L52.076 9.181C52.072 9.08307 52.0414 8.98587 51.9858 8.89047L50.1703 5.76411C50.0748 5.59993 49.9527 5.51042 49.8262 5.51042C49.6996 5.51021 49.5778 5.60073 49.4833 5.76589ZM48.032 9.50893C47.9374 9.4774 47.8508 9.40867 47.8139 9.32007L47.7922 9.22113C47.7898 9.1512 47.81 9.0742 47.8541 8.9988L49.656 5.86443C49.7219 5.74941 49.7894 5.70867 49.8266 5.70867C49.8644 5.70867 49.9313 5.74883 49.9982 5.86363L51.8142 8.99C51.8524 9.0558 51.8744 9.125 51.8768 9.18847L51.856 9.31187C51.8191 9.39947 51.7324 9.4682 51.6103 9.50467C51.6095 9.50133 48.032 9.50893 48.032 9.50893Z" fill="#FEFEFE"/>
<path d="M50.3331 5.21903C50.2696 5.32914 50.2881 5.4796 50.3831 5.64377L52.1986 8.77073C52.296 8.9382 52.4399 9.04207 52.6037 9.0634C52.7597 9.0832 52.9207 9.02187 53.0584 8.8906C53.0752 8.86807 54.8719 5.74349 54.8719 5.74349C54.8811 5.71723 54.9029 5.53563 54.9029 5.53563C54.8985 5.42572 54.8631 5.32405 54.7997 5.24255C54.6993 5.11129 54.5366 5.03998 54.3427 5.04037L50.7247 5.04801C50.5353 5.04938 50.3957 5.10953 50.3331 5.21903ZM50.5547 5.54386C50.5129 5.47215 50.4971 5.41455 50.4951 5.37341C50.4941 5.34873 50.4985 5.33032 50.5047 5.31778C50.5237 5.28564 50.5929 5.24763 50.7247 5.24706L54.3427 5.23883C54.474 5.23883 54.5805 5.28329 54.6431 5.36342C54.6809 5.41338 54.7013 5.47372 54.7046 5.54386L54.6885 5.6712C54.6832 5.67218 52.9035 8.76913 52.9035 8.76913C52.8278 8.83593 52.7241 8.87867 52.6288 8.86653C52.5274 8.8538 52.4359 8.78407 52.3705 8.6712L50.5547 5.54386Z" fill="#FEFEFE"/>
</g>
</g>
<mask id="mask2_512_14382" style="mask-type:luminance" maskUnits="userSpaceOnUse" x="89" y="0" width="47" height="10">
<path d="M135.356 0H89.4102V10H135.356V0Z" fill="white"/>
</mask>
<g mask="url(#mask2_512_14382)">
<path d="M118.485 7.48407L119.338 5.02869L120.184 7.48407H118.485ZM118.826 4.12565L116.855 9.56213H117.765L118.224 8.24347H120.441L120.9 9.56213H121.826L119.855 4.12565H118.826Z" fill="#FEFEFE"/>
<path d="M126.101 6.40372H127.319V9.562H128.111V6.40372H129.33V5.7487H126.101V6.40372Z" fill="#FEFEFE"/>
<path d="M131.585 8.93053C130.927 8.93053 130.397 8.36267 130.397 7.6588C130.397 6.95493 130.927 6.37942 131.585 6.37942C132.241 6.37942 132.772 6.954 132.772 7.6588C132.772 8.36367 132.241 8.93053 131.585 8.93053ZM131.585 5.66024C131.195 5.66439 130.815 5.78479 130.493 6.00633C130.171 6.22786 129.922 6.54059 129.775 6.9052C129.629 7.26987 129.593 7.67007 129.671 8.05547C129.749 8.44093 129.939 8.7944 130.215 9.0714C130.491 9.34847 130.843 9.53667 131.225 9.61233C131.607 9.68807 132.003 9.64787 132.363 9.49693C132.723 9.34593 133.03 9.09087 133.247 8.7638C133.463 8.43673 133.579 8.05227 133.579 7.6588C133.58 7.39487 133.528 7.13353 133.428 6.88987C133.327 6.64617 133.18 6.42502 132.995 6.23919C132.809 6.05335 132.589 5.90651 132.347 5.80713C132.105 5.70775 131.845 5.65782 131.585 5.66024Z" fill="#FEFEFE"/>
<path d="M124.303 8.9462H123.211V7.91573H124.303C124.683 7.91573 124.921 8.10727 124.921 8.4348C124.921 8.76233 124.684 8.9462 124.303 8.9462ZM123.211 6.36055H124.225C124.62 6.36055 124.835 6.54346 124.835 6.8394C124.835 7.13527 124.62 7.3278 124.225 7.3278H123.211V6.36055ZM125.127 7.5758C125.279 7.49567 125.405 7.37487 125.493 7.22673C125.581 7.07853 125.627 6.90873 125.626 6.73593C125.626 6.15179 125.253 5.74479 124.28 5.74479H122.42V9.56193H124.327C125.253 9.56193 125.728 9.06687 125.728 8.45107C125.734 8.25993 125.678 8.072 125.57 7.91507C125.462 7.75813 125.307 7.64053 125.127 7.5796" fill="#FEFEFE"/>
<path d="M93.1397 6.15495C92.7537 6.15477 92.3757 6.27037 92.0544 6.48713C91.733 6.70387 91.4824 7.01207 91.3344 7.37267C91.1864 7.73333 91.1477 8.1302 91.2231 8.51313C91.2984 8.896 91.4844 9.2478 91.757 9.52393C92.0304 9.80007 92.3784 9.98813 92.7577 10.0643C93.1364 10.1406 93.5297 10.1015 93.8864 9.9522C94.2437 9.80287 94.5484 9.54987 94.7631 9.22527C94.9777 8.90067 95.0924 8.51907 95.0924 8.12867C95.0924 7.60533 94.8871 7.10347 94.5211 6.7334C94.1544 6.36326 93.6577 6.15521 93.1397 6.15495Z" fill="#626970"/>
<path d="M96.0698 7.21C96.3844 7.2102 96.6911 7.1162 96.9531 6.94C97.2144 6.76373 97.4178 6.51313 97.5384 6.21987C97.6584 5.9266 97.6904 5.60387 97.6291 5.29247C97.5678 4.98107 97.4164 4.695 97.1944 4.47042C96.9724 4.24587 96.6891 4.09292 96.3811 4.03091C96.0731 3.96891 95.7538 4.00063 95.4631 4.12208C95.1731 4.24353 94.9244 4.44925 94.7498 4.7132C94.5758 4.97718 94.4824 5.28751 94.4824 5.605C94.4831 6.03027 94.6504 6.43791 94.9478 6.73873C95.2458 7.03953 95.6491 7.209 96.0698 7.21Z" fill="#FEFEFE"/>
<path d="M96.5282 7.46747C96.2949 7.46747 96.0669 7.5374 95.8722 7.66854C95.6782 7.79967 95.5269 7.986 95.4375 8.20407C95.3482 8.42207 95.3249 8.662 95.3702 8.89347C95.4155 9.12494 95.5282 9.33754 95.6935 9.5044C95.8582 9.67127 96.0689 9.78493 96.2982 9.83094C96.5269 9.877 96.7649 9.85334 96.9802 9.76307C97.1962 9.67273 97.3809 9.5198 97.5102 9.3236C97.6402 9.12734 97.7095 8.89667 97.7095 8.66067C97.7102 8.50387 97.6795 8.34854 97.6202 8.2036C97.5609 8.05867 97.4742 7.92694 97.3642 7.81607C97.2549 7.7052 97.1242 7.61734 96.9809 7.55754C96.8375 7.49767 96.6835 7.46707 96.5282 7.46747Z" fill="#F68E57"/>
<path d="M93.5136 5.89725C93.6576 5.89725 93.7989 5.85394 93.9196 5.77281C94.0396 5.69167 94.1329 5.57636 94.1882 5.44145C94.2436 5.30654 94.2582 5.15809 94.2302 5.01487C94.2022 4.87165 94.1322 4.74009 94.0302 4.63683C93.9276 4.53356 93.7976 4.46325 93.6562 4.43476C93.5142 4.40627 93.3669 4.42089 93.2336 4.47678C93.1002 4.53265 92.9862 4.62729 92.9056 4.74871C92.8256 4.87014 92.7822 5.01287 92.7822 5.15891C92.7822 5.35471 92.8596 5.54251 92.9969 5.68098C93.1336 5.81945 93.3196 5.89725 93.5136 5.89725Z" fill="#FEFEFE"/>
<path d="M113.039 8.61747C112.852 8.61747 112.669 8.56127 112.513 8.45607C112.357 8.3508 112.235 8.20127 112.163 8.02627C112.092 7.85127 112.073 7.65873 112.109 7.473C112.146 7.2872 112.237 7.1166 112.369 6.98267C112.501 6.84873 112.671 6.75753 112.854 6.7206C113.038 6.6836 113.229 6.7026 113.402 6.77507C113.575 6.84753 113.723 6.97027 113.827 7.1278C113.931 7.28527 113.987 7.4704 113.987 7.6598C113.987 7.78553 113.963 7.91007 113.915 8.02627C113.867 8.14247 113.797 8.248 113.709 8.33693C113.621 8.42587 113.517 8.4964 113.402 8.54453C113.287 8.59267 113.163 8.61747 113.039 8.61747ZM113.039 5.68229C112.653 5.68229 112.275 5.79805 111.954 6.01491C111.633 6.23178 111.382 6.54003 111.235 6.90067C111.087 7.26133 111.048 7.65813 111.123 8.041C111.199 8.42387 111.385 8.77553 111.658 9.0516C111.931 9.3276 112.279 9.5156 112.658 9.59173C113.037 9.66787 113.43 9.6288 113.787 9.4794C114.144 9.33007 114.449 9.07707 114.663 8.75247C114.878 8.42793 114.993 8.04633 114.993 7.656C114.993 7.3968 114.942 7.14013 114.844 6.90067C114.746 6.66123 114.602 6.44365 114.421 6.26036C114.239 6.07709 114.024 5.93171 113.787 5.83253C113.55 5.73333 113.296 5.68229 113.039 5.68229Z" fill="#FEFEFE"/>
<path d="M104.775 8.1626L103.884 5.7513H102.83L104.266 9.5608H105.311L106.72 5.7513H105.667L104.775 8.1626Z" fill="#FEFEFE"/>
<path d="M110.033 4.73959H109.031V5.75178H108.445V6.66154H109.031V8.2828C109.031 9.2012 109.532 9.59574 110.237 9.59574C110.476 9.5994 110.713 9.55307 110.934 9.45973V8.51453C110.814 8.55893 110.688 8.58227 110.56 8.58353C110.254 8.58353 110.033 8.46287 110.033 8.05107V6.66154H110.934V5.75178H110.033V4.73959Z" fill="#FEFEFE"/>
<path d="M107.544 4.00113C107.354 4.00801 107.176 4.08877 107.044 4.22639C106.913 4.36401 106.839 4.54776 106.839 4.73899C106.839 4.93021 106.913 5.11396 107.044 5.25159C107.176 5.38921 107.354 5.46996 107.544 5.47685C107.642 5.48041 107.74 5.46399 107.832 5.42849C107.923 5.39303 108.007 5.33925 108.078 5.27039C108.148 5.20152 108.204 5.11896 108.243 5.02767C108.281 4.93636 108.301 4.83819 108.301 4.73899C108.301 4.63979 108.281 4.54161 108.243 4.45032C108.204 4.35901 108.148 4.27645 108.078 4.20759C108.007 4.13872 107.923 4.08494 107.832 4.04947C107.74 4.014 107.642 3.99756 107.544 4.00113Z" fill="#FEFEFE"/>
<path d="M108.045 5.7513H107.043V9.56173H108.045V5.7513Z" fill="#FEFEFE"/>
<path d="M100.132 7.43387L100.854 5.52629L101.57 7.43387H100.132ZM100.285 4.13867L98.2266 9.56173H99.3312L99.7572 8.42987H101.938L102.363 9.56173H103.458L101.411 4.13867H100.285Z" fill="#FEFEFE"/>
</g>
</g>
<defs>
<clipPath id="clip0_512_14382">
<rect width="134" height="40" fill="white"/>
</clipPath>
</defs>
</svg>
