<svg width="16" height="16" viewBox="0 0 16 16" fill="none" xmlns="http://www.w3.org/2000/svg">
<g clip-path="url(#clip0_4595_2017)">
<path d="M7.9718 16.0052L7.50709 15.6068C6.86643 15.0704 1.27246 10.2393 1.27246 6.70538C1.27246 3.00544 4.27187 0.00603294 7.9718 0.00603294C11.6717 0.00603294 14.6711 3.00544 14.6711 6.70538C14.6711 10.2393 9.07718 15.0704 8.43918 15.6095L7.9718 16.0052ZM7.9718 1.45463C5.07327 1.45791 2.72437 3.80681 2.72109 6.70535C2.72109 8.92541 6.16271 12.4719 7.9718 14.0951C9.78093 12.4713 13.2225 8.92272 13.2225 6.70535C13.2192 3.80681 10.8704 1.45794 7.9718 1.45463Z" fill="currentColor"/>
<path d="M7.97197 9.36071C6.50534 9.36071 5.31641 8.17177 5.31641 6.70514C5.31641 5.23852 6.50534 4.04958 7.97197 4.04958C9.43859 4.04958 10.6275 5.23852 10.6275 6.70514C10.6275 8.17177 9.43862 9.36071 7.97197 9.36071ZM7.97197 5.37733C7.23866 5.37733 6.64419 5.9718 6.64419 6.70511C6.64419 7.43843 7.23866 8.03289 7.97197 8.03289C8.70528 8.03289 9.29975 7.43843 9.29975 6.70511C9.29975 5.9718 8.70531 5.37733 7.97197 5.37733Z" fill="currentColor"/>
</g>
<defs>
<clipPath id="clip0_4595_2017">
<rect width="16" height="16" fill="white"/>
</clipPath>
</defs>
</svg>
