<svg width="16" height="16" viewBox="0 0 16 16" fill="none" xmlns="http://www.w3.org/2000/svg">
<path d="M9.46681 10.76C7.52596 9.93721 5.98242 8.39008 5.16414 6.44733L7.43481 4.17667L3.25814 0L1.14414 2.114C0.777344 2.48253 0.487352 2.9202 0.290974 3.40165C0.094597 3.88309 -0.00425796 4.39873 0.000140588 4.91867C0.000140588 9.75067 6.16814 15.9187 11.0001 15.9187C11.5201 15.9231 12.0357 15.8242 12.5172 15.6278C12.9986 15.4315 13.4363 15.1415 13.8048 14.7747L15.9188 12.6607L11.7421 8.484L9.46681 10.76ZM12.8628 13.832C12.6176 14.0746 12.3267 14.266 12.007 14.3953C11.6872 14.5247 11.345 14.5892 11.0001 14.5853C6.84481 14.5853 1.33347 9.074 1.33347 4.91867C1.32966 4.5739 1.39428 4.23181 1.52359 3.91219C1.6529 3.59257 1.84434 3.30179 2.08681 3.05667L3.25814 1.88533L5.54947 4.17667L3.59281 6.13333L3.75681 6.54267C4.23749 7.82885 4.98904 8.99668 5.96052 9.96701C6.932 10.9373 8.10072 11.6875 9.38747 12.1667L9.79147 12.3207L11.7421 10.3693L14.0335 12.6607L12.8628 13.832Z" fill="currentColor"/>
</svg>
