<svg width="54" height="80" viewBox="0 0 54 80" fill="none" xmlns="http://www.w3.org/2000/svg">
<g clip-path="url(#clip0_1726_4059)">
<path d="M54 26.3305C54 11.7894 41.9109 0 27 0C12.0891 0 0 11.7894 0 26.3305C0 30.0325 0.785872 33.5552 2.19906 36.7507C10.5036 51.1664 18.8104 65.5843 27.1149 80C35.3436 65.5843 43.5723 51.1664 51.8009 36.7507C53.2141 33.5552 54 30.0325 54 26.3305Z" fill="#F68E57"/>
<g clip-path="url(#clip1_1726_4059)">
<mask id="mask0_1726_4059" style="mask-type:luminance" maskUnits="userSpaceOnUse" x="12" y="10" width="31" height="39">
<path d="M43 10H12V49H43V10Z" fill="white"/>
</mask>
<g mask="url(#mask0_1726_4059)">
<path d="M42.3963 11.5271C42.1625 11.0486 41.6562 10.7077 40.5223 10.5988C35.285 10.0945 32.8337 10 27.3804 10H27.3774C21.9211 10 19.5438 10.086 14.2266 10.5988C13.0897 10.7077 12.5835 11.0486 12.3496 11.53C12.1779 11.8853 12.1542 12.3179 12.1305 12.7878C11.8433 18.5667 12.018 34.2905 12.8115 43.138C12.9032 44.1608 12.9536 45.2467 13.1075 46.1464C13.3414 47.5073 13.9276 47.8941 15.0437 48.1176C16.9918 48.51 20.8197 48.8224 27.3685 48.8224C33.9173 48.8224 37.7542 48.5129 39.7052 48.1204C40.8213 47.8969 41.4075 47.513 41.6414 46.1492C41.7953 45.2496 41.8427 44.1637 41.9374 43.1408C42.7309 34.2934 42.9055 18.5696 42.6183 12.7906C42.5946 12.3179 42.571 11.8853 42.3963 11.5271ZM13.5013 13.4267C13.5368 12.7161 13.4243 12.2119 14.0164 11.8222L22.6523 13.3293C22.9484 13.166 27.2441 13.1631 27.3774 13.1631C27.5106 13.1631 31.8064 13.166 32.1024 13.3293L40.6673 11.8108C41.2624 12.1975 41.1618 12.7161 41.1973 13.4267C41.2861 15.2145 41.3275 17.9908 41.3217 21.2169L41.3186 21.2713L34.465 21.7355C32.7626 21.8903 32.5643 22.3115 32.5584 23.0707C32.5584 23.0707 32.4785 28.2737 32.431 30.1017C32.3659 32.7004 32.135 36.574 32.1321 36.7029C32.1113 37.3247 31.6791 37.7802 31.0663 37.8289C31.0663 37.8289 28.8814 37.9063 27.3833 37.892C27.3715 37.892 27.3626 37.892 27.3507 37.892C27.3389 37.892 27.3301 37.892 27.3182 37.892C25.8201 37.9034 23.6352 37.8289 23.6352 37.8289C23.0224 37.7773 22.5872 37.3247 22.5694 36.7029C22.5665 36.574 22.3355 32.7004 22.2704 30.1017C22.2231 28.2737 22.1432 23.0707 22.1432 23.0707C22.1402 22.3115 21.9388 21.8903 20.2365 21.7355L13.3769 21.2083C13.371 17.9851 13.4124 15.2117 13.5013 13.4267ZM27.3478 39.0351H27.3804L30.7968 39.0007C33.4614 39.0151 33.1979 38.7945 33.5531 36.5253C33.6419 35.958 34.8765 23.1881 34.8765 23.1881C34.9179 22.8931 35.0867 22.767 35.3265 22.7383L41.1262 22.002C41.2328 21.9877 41.3275 22.0708 41.3246 22.1767C41.3246 22.1767 40.8509 43.3099 40.238 45.8799C40.1048 46.4329 39.9568 46.5618 39.4594 46.6764C39.4594 46.6764 36.5373 47.3439 27.3537 47.3526C18.1641 47.3411 15.2421 46.6736 15.2421 46.6736C14.7447 46.5589 14.5967 46.4329 14.4634 45.877C13.8506 43.3099 13.3769 22.1767 13.3769 22.1767C13.374 22.0736 13.4687 21.9906 13.5753 22.002L19.375 22.7383C19.6148 22.7699 19.7836 22.8931 19.825 23.1881C19.825 23.1881 21.0595 35.958 21.1484 36.5253C21.5036 38.7916 21.2401 39.0151 23.9047 39.0007L27.3211 39.0351H27.3478Z" fill="#272D2D"/>
<path d="M24.8104 41.4181C24.7986 41.4009 24.7779 41.3894 24.7571 41.3894H23.8246C23.8009 41.3894 23.7831 41.4009 23.7683 41.4181L21.8291 44.2059C21.8143 44.2259 21.8291 44.2545 21.8558 44.2545H22.7617C22.7824 44.2545 22.8032 44.2431 22.815 44.2259L23.3153 43.5096C23.3391 43.4752 23.3805 43.4552 23.4219 43.4552H25.1568C25.2012 43.4552 25.2397 43.4752 25.2634 43.5096L25.7637 44.2259C25.7756 44.2431 25.7962 44.2545 25.817 44.2545H26.723C26.7496 44.2545 26.7644 44.2259 26.7496 44.2059L24.8104 41.4181ZM24.7926 43.0054H23.789C23.7387 43.0054 23.7062 42.9509 23.7358 42.9079L24.2361 42.1859C24.2627 42.1487 24.316 42.1487 24.3427 42.1859L24.8459 42.9079C24.8726 42.9509 24.843 43.0054 24.7926 43.0054Z" fill="#272D2D"/>
<path d="M21.7911 41.3894H17.1341C17.1074 41.3894 17.0926 41.4181 17.1074 41.4382L17.3472 41.7848C17.3709 41.8192 17.4124 41.8393 17.4538 41.8393H18.9489C18.9844 41.8393 19.014 41.8679 19.014 41.9023V44.2202C19.014 44.2402 19.0288 44.2545 19.0496 44.2545H19.8637C19.8844 44.2545 19.8992 44.2402 19.8992 44.2202V41.9023C19.8992 41.8679 19.9288 41.8393 19.9644 41.8393H21.4624C21.5068 41.8393 21.5453 41.8192 21.569 41.7848L21.8088 41.4382C21.8325 41.4181 21.8177 41.3894 21.7911 41.3894Z" fill="#272D2D"/>
<path d="M32.217 41.3894H31.4029C31.3822 41.3894 31.3674 41.4066 31.3674 41.4238V43.4294C31.3674 43.4552 31.3378 43.4695 31.3141 43.4552L28.6229 41.4181C28.5993 41.4009 28.5696 41.3894 28.5371 41.3894H27.7348C27.714 41.3894 27.6992 41.4066 27.6992 41.4238V44.2202C27.6992 44.2402 27.714 44.2545 27.7348 44.2545H28.549C28.5696 44.2545 28.5844 44.2402 28.5844 44.2202V42.2146C28.5844 42.1888 28.6141 42.1745 28.6377 42.1888L31.3289 44.2259C31.3526 44.2431 31.3822 44.2545 31.4147 44.2545H32.217C32.2378 44.2545 32.2526 44.2402 32.2526 44.2202V41.4238C32.2526 41.4066 32.2378 41.3894 32.217 41.3894Z" fill="#272D2D"/>
<path d="M37.8344 44.2207L35.8864 42.665C35.8687 42.6507 35.8687 42.622 35.8893 42.6077L37.8315 41.4272C37.8492 41.4187 37.8403 41.3928 37.8197 41.3928H36.8249C36.7894 41.3928 36.7568 41.4015 36.7272 41.4215L34.6104 42.708C34.5867 42.7223 34.5542 42.7051 34.5542 42.6793V41.4301C34.5542 41.41 34.5394 41.3957 34.5186 41.3957H33.7044C33.6838 41.3957 33.6689 41.41 33.6689 41.4301V44.2264C33.6689 44.2465 33.6867 44.2608 33.7044 44.2608H34.5186C34.5394 44.2608 34.5542 44.2465 34.5542 44.2264V43.4586C34.5542 43.4357 34.566 43.4156 34.5867 43.4042L35.2766 42.9859C35.3002 42.9716 35.3328 42.9744 35.3535 42.9916L36.896 44.2236C36.9285 44.2494 36.9699 44.2637 37.0144 44.2637H37.8197C37.8434 44.2551 37.8522 44.2322 37.8344 44.2207Z" fill="#272D2D"/>
</g>
</g>
</g>
<defs>
<clipPath id="clip0_1726_4059">
<rect width="54" height="80" fill="white"/>
</clipPath>
<clipPath id="clip1_1726_4059">
<rect width="31" height="39" fill="white" transform="translate(12 10)"/>
</clipPath>
</defs>
</svg>
