<svg width="130" height="130" viewBox="0 0 130 130" fill="none" xmlns="http://www.w3.org/2000/svg">
<path d="M110.529 18.818C98.3705 6.67734 82.1786 0 64.971 0C29.4531 0 0.551339 28.7906 0.551339 64.1719C0.551339 75.4742 3.51116 86.5164 9.14062 96.2578L0 129.5L34.154 120.568C43.5558 125.684 54.1473 128.373 64.942 128.373H64.971C100.46 128.373 130 99.582 130 64.2008C130 47.0594 122.687 30.9586 110.529 18.818ZM64.971 117.562C55.3371 117.562 45.9062 114.989 37.6942 110.133L35.75 108.977L15.4955 114.266L20.8929 94.5813L19.6161 92.5578C14.2478 84.0594 11.433 74.2602 11.433 64.1719C11.433 34.7742 35.4598 10.8398 65 10.8398C79.3058 10.8398 92.7411 16.3898 102.839 26.4781C112.937 36.5664 119.147 49.95 119.118 64.2008C119.118 93.6273 94.4821 117.562 64.971 117.562ZM94.3371 77.6133C92.7411 76.8039 84.8192 72.9305 83.3393 72.4102C81.8594 71.8609 80.7857 71.6008 79.7121 73.2195C78.6384 74.8383 75.5625 78.4227 74.6049 79.5211C73.6763 80.5906 72.7188 80.7352 71.1228 79.9258C61.6629 75.2141 55.4531 71.5141 49.2143 60.8477C47.5603 58.0148 50.8683 58.2172 53.9442 52.0891C54.4665 51.0195 54.2054 50.0945 53.7991 49.2852C53.3929 48.4758 50.1719 40.5844 48.8371 37.3758C47.5313 34.2539 46.1964 34.6875 45.2098 34.6297C44.2813 34.5719 43.2076 34.5719 42.1339 34.5719C41.0603 34.5719 39.3192 34.9766 37.8393 36.5664C36.3594 38.1852 32.2098 42.0586 32.2098 49.95C32.2098 57.8414 37.9844 65.4727 38.7679 66.5422C39.5804 67.6117 50.1138 83.7992 66.2768 90.7656C76.4911 95.1594 80.4955 95.5352 85.6027 94.7836C88.7076 94.3211 95.1205 90.9102 96.4554 87.1523C97.7902 83.3945 97.7902 80.1859 97.3839 79.5211C97.0067 78.7984 95.933 78.3938 94.3371 77.6133Z" fill="#F68E57"/>
</svg>
