<svg width="31" height="24" viewBox="0 0 31 24" fill="none" xmlns="http://www.w3.org/2000/svg">
<path d="M29.7068 3.75519C29.3578 2.27706 28.3297 1.11294 27.0243 0.717875C24.6582 0 15.1704 0 15.1704 0C15.1704 0 5.68261 0 3.31644 0.717875C2.01106 1.113 0.982944 2.27706 0.634 3.75519C0 6.43438 0 12.0243 0 12.0243C0 12.0243 0 17.6141 0.634 20.2933C0.982944 21.7714 2.01106 22.8871 3.31644 23.2821C5.68261 24 15.1704 24 15.1704 24C15.1704 24 24.6582 24 27.0243 23.2821C28.3297 22.8871 29.3578 21.7714 29.7068 20.2933C30.3408 17.6141 30.3408 12.0243 30.3408 12.0243C30.3408 12.0243 30.3408 6.43438 29.7068 3.75519ZM12.0673 17.0994V6.94906L19.9973 12.0244L12.0673 17.0994Z" fill="#FEFEFE"/>
</svg>
